<svg xmlns="http://www.w3.org/2000/svg" xmlns:xlink="http://www.w3.org/1999/xlink" width="500" zoomAndPan="magnify" viewBox="0 0 375 374.999991" height="500" preserveAspectRatio="xMidYMid meet" version="1.0"><defs><g/></defs><rect x="-37.5" width="450" fill="#ffffff" y="-37.499999" height="449.999989" fill-opacity="1"/><rect x="-37.5" width="450" fill="#db4a2b" y="-37.499999" height="449.999989" fill-opacity="1"/><g fill="#e4e2dd" fill-opacity="1"><g transform="translate(7.05257, 33.89092)"><g><path d="M 15.625 -19.890625 C 17.882812 -19.890625 19.578125 -19.265625 20.703125 -18.015625 C 21.835938 -16.765625 22.40625 -14.957031 22.40625 -12.59375 L 22.40625 0 L 15.0625 0 L 15.0625 -11.71875 C 15.0625 -12.550781 14.847656 -13.21875 14.421875 -13.71875 C 13.992188 -14.226562 13.382812 -14.484375 12.59375 -14.484375 C 11.6875 -14.484375 10.953125 -14.1875 10.390625 -13.59375 C 9.828125 -13.007812 9.546875 -12.285156 9.546875 -11.421875 L 9.546875 0 L 2.203125 0 L 2.203125 -19.453125 L 8.21875 -19.453125 L 8.6875 -16.5 C 9.457031 -17.53125 10.460938 -18.351562 11.703125 -18.96875 C 12.941406 -19.582031 14.25 -19.890625 15.625 -19.890625 Z M 15.625 -19.890625 "/></g></g></g><g fill="#e4e2dd" fill-opacity="1"><g transform="translate(29.5267, 33.89092)"><g><path d="M 12.265625 -19.890625 C 15.828125 -19.890625 18.546875 -19.054688 20.421875 -17.390625 C 22.304688 -15.722656 23.25 -13.171875 23.25 -9.734375 L 23.25 -8.46875 L 8.65625 -8.46875 C 8.65625 -7.070312 8.96875 -6.015625 9.59375 -5.296875 C 10.21875 -4.585938 11.207031 -4.234375 12.5625 -4.234375 C 13.789062 -4.234375 14.691406 -4.488281 15.265625 -5 C 15.847656 -5.519531 16.140625 -6.210938 16.140625 -7.078125 L 23.25 -7.078125 C 23.25 -4.710938 22.351562 -2.867188 20.5625 -1.546875 C 18.769531 -0.222656 16.15625 0.4375 12.71875 0.4375 C 9.101562 0.4375 6.300781 -0.398438 4.3125 -2.078125 C 2.320312 -3.765625 1.328125 -6.316406 1.328125 -9.734375 C 1.328125 -13.066406 2.296875 -15.59375 4.234375 -17.3125 C 6.171875 -19.03125 8.847656 -19.890625 12.265625 -19.890625 Z M 12.5625 -15.21875 C 10.25 -15.21875 8.957031 -14.125 8.6875 -11.9375 L 15.84375 -11.9375 C 15.84375 -12.945312 15.550781 -13.742188 14.96875 -14.328125 C 14.394531 -14.921875 13.59375 -15.21875 12.5625 -15.21875 Z M 12.5625 -15.21875 "/></g></g></g><g fill="#e4e2dd" fill-opacity="1"><g transform="translate(52.000829, 33.89092)"><g><path d="M 24.390625 0 L 15.84375 0 L 12.15625 -6.109375 L 12.015625 -6.109375 L 8.296875 0 L 0.140625 0 L 7.625 -10.3125 L 0.890625 -19.453125 L 9.5 -19.453125 L 12.59375 -14.296875 L 12.75 -14.296875 L 15.84375 -19.453125 L 23.953125 -19.453125 L 17.09375 -10.125 Z M 24.390625 0 "/></g></g></g><g fill="#e4e2dd" fill-opacity="1"><g transform="translate(74.474957, 33.89092)"><g><path d="M 15.171875 -19.453125 L 15.171875 -14.484375 L 11.046875 -14.484375 L 11.046875 -7.078125 C 11.046875 -6.191406 11.191406 -5.546875 11.484375 -5.140625 C 11.785156 -4.734375 12.328125 -4.53125 13.109375 -4.53125 L 15.171875 -4.53125 L 15.171875 -0.21875 C 14.585938 -0.0195312 13.828125 0.132812 12.890625 0.25 C 11.960938 0.375 11.15625 0.4375 10.46875 0.4375 C 8.300781 0.4375 6.632812 0.046875 5.46875 -0.734375 C 4.300781 -1.523438 3.71875 -2.863281 3.71875 -4.75 L 3.71875 -14.484375 L 1 -14.484375 L 1 -19.453125 L 4.015625 -19.453125 L 5.59375 -25.34375 L 11.046875 -25.34375 L 11.046875 -19.453125 Z M 15.171875 -19.453125 "/></g></g></g><g fill="#e4e2dd" fill-opacity="1"><g transform="translate(88.733006, 33.89092)"><g><path d="M 28.03125 -19.890625 C 30.25 -19.890625 31.910156 -19.253906 33.015625 -17.984375 C 34.117188 -16.722656 34.671875 -14.925781 34.671875 -12.59375 L 34.671875 0 L 27.34375 0 L 27.34375 -11.71875 C 27.34375 -12.550781 27.140625 -13.21875 26.734375 -13.71875 C 26.328125 -14.226562 25.753906 -14.484375 25.015625 -14.484375 C 24.160156 -14.484375 23.460938 -14.1875 22.921875 -13.59375 C 22.378906 -13.007812 22.109375 -12.285156 22.109375 -11.421875 L 22.109375 0 L 14.78125 0 L 14.78125 -11.71875 C 14.78125 -12.550781 14.578125 -13.21875 14.171875 -13.71875 C 13.765625 -14.226562 13.191406 -14.484375 12.453125 -14.484375 C 11.585938 -14.484375 10.882812 -14.1875 10.34375 -13.59375 C 9.8125 -13.007812 9.546875 -12.285156 9.546875 -11.421875 L 9.546875 0 L 2.203125 0 L 2.203125 -19.453125 L 8.21875 -19.453125 L 8.6875 -16.546875 C 9.425781 -17.578125 10.40625 -18.390625 11.625 -18.984375 C 12.84375 -19.585938 14.125 -19.890625 15.46875 -19.890625 C 18.394531 -19.890625 20.363281 -18.773438 21.375 -16.546875 C 22.132812 -17.578125 23.109375 -18.390625 24.296875 -18.984375 C 25.484375 -19.585938 26.726562 -19.890625 28.03125 -19.890625 Z M 28.03125 -19.890625 "/></g></g></g><g fill="#e4e2dd" fill-opacity="1"><g transform="translate(123.475995, 33.89092)"><g><path d="M 24.09375 -23.09375 C 24.09375 -21.601562 23.71875 -20.453125 22.96875 -19.640625 C 22.21875 -18.828125 21.09375 -18.222656 19.59375 -17.828125 C 20.3125 -17.285156 20.875 -16.648438 21.28125 -15.921875 C 21.6875 -15.203125 21.890625 -14.4375 21.890625 -13.625 C 21.890625 -11.5625 21.109375 -10.003906 19.546875 -8.953125 C 17.984375 -7.898438 16.035156 -7.375 13.703125 -7.375 L 10.90625 -7.375 C 9.351562 -7.375 8.578125 -7.015625 8.578125 -6.296875 C 8.578125 -5.953125 8.75 -5.675781 9.09375 -5.46875 C 9.4375 -5.257812 10.039062 -5.15625 10.90625 -5.15625 L 17.53125 -5.15625 C 19.695312 -5.15625 21.332031 -4.585938 22.4375 -3.453125 C 23.539062 -2.328125 24.09375 -0.820312 24.09375 1.0625 C 24.09375 2.46875 23.722656 3.671875 22.984375 4.671875 C 22.253906 5.679688 21.257812 6.441406 20 6.953125 C 18.75 7.472656 17.390625 7.734375 15.921875 7.734375 L 5.078125 7.734375 C 4.203125 7.734375 3.390625 7.523438 2.640625 7.109375 C 1.890625 6.691406 1.289062 6.117188 0.84375 5.390625 C 0.40625 4.671875 0.1875 3.867188 0.1875 2.984375 C 0.1875 2.023438 0.476562 1.15625 1.0625 0.375 C 1.65625 -0.394531 2.394531 -0.972656 3.28125 -1.359375 C 2.6875 -1.773438 2.21875 -2.28125 1.875 -2.875 C 1.53125 -3.46875 1.359375 -4.109375 1.359375 -4.796875 C 1.359375 -5.753906 1.710938 -6.617188 2.421875 -7.390625 C 3.140625 -8.160156 4.023438 -8.679688 5.078125 -8.953125 C 4.117188 -9.566406 3.359375 -10.269531 2.796875 -11.0625 C 2.234375 -11.863281 1.953125 -12.707031 1.953125 -13.59375 C 1.953125 -15.851562 2.863281 -17.46875 4.6875 -18.4375 C 6.519531 -19.40625 8.945312 -19.890625 11.96875 -19.890625 C 13.300781 -19.890625 14.367188 -19.816406 15.171875 -19.671875 C 16.378906 -20.429688 17.160156 -21.125 17.515625 -21.75 C 17.867188 -22.382812 18.046875 -22.832031 18.046875 -23.09375 Z M 11.90625 -16.0625 C 11.09375 -16.0625 10.425781 -15.851562 9.90625 -15.4375 C 9.394531 -15.019531 9.140625 -14.414062 9.140625 -13.625 C 9.140625 -12.820312 9.378906 -12.21875 9.859375 -11.8125 C 10.335938 -11.40625 11.019531 -11.203125 11.90625 -11.203125 C 12.789062 -11.203125 13.484375 -11.40625 13.984375 -11.8125 C 14.484375 -12.21875 14.734375 -12.820312 14.734375 -13.625 C 14.734375 -14.4375 14.484375 -15.046875 13.984375 -15.453125 C 13.484375 -15.859375 12.789062 -16.0625 11.90625 -16.0625 Z M 9.0625 0 C 8.5 0 8.035156 0.148438 7.671875 0.453125 C 7.316406 0.765625 7.140625 1.203125 7.140625 1.765625 C 7.140625 2.328125 7.320312 2.78125 7.6875 3.125 C 8.0625 3.46875 8.519531 3.640625 9.0625 3.640625 L 14.8125 3.640625 C 15.351562 3.640625 15.8125 3.472656 16.1875 3.140625 C 16.570312 2.816406 16.765625 2.375 16.765625 1.8125 C 16.765625 1.238281 16.578125 0.789062 16.203125 0.46875 C 15.835938 0.15625 15.375 0 14.8125 0 Z M 9.0625 0 "/></g></g></g><g fill="#e4e2dd" fill-opacity="1"><g transform="translate(145.950119, 33.89092)"><g><path d="M 11.125 -4.96875 L 19.71875 -4.96875 L 19.71875 0 L 0.734375 0 L 0.734375 -2.390625 L 8.921875 -14.484375 L 1.171875 -14.484375 L 1.171875 -19.453125 L 19.375 -19.453125 L 19.375 -17.171875 Z M 11.125 -4.96875 "/></g></g></g><g fill="#e4e2dd" fill-opacity="1"><g transform="translate(164.334629, 33.89092)"><g><path d="M 15.625 -19.890625 C 17.882812 -19.890625 19.578125 -19.265625 20.703125 -18.015625 C 21.835938 -16.765625 22.40625 -14.957031 22.40625 -12.59375 L 22.40625 0 L 15.0625 0 L 15.0625 -11.71875 C 15.0625 -12.550781 14.847656 -13.21875 14.421875 -13.71875 C 13.992188 -14.226562 13.382812 -14.484375 12.59375 -14.484375 C 11.6875 -14.484375 10.953125 -14.1875 10.390625 -13.59375 C 9.828125 -13.007812 9.546875 -12.285156 9.546875 -11.421875 L 9.546875 0 L 2.203125 0 L 2.203125 -19.453125 L 8.21875 -19.453125 L 8.6875 -16.5 C 9.457031 -17.53125 10.460938 -18.351562 11.703125 -18.96875 C 12.941406 -19.582031 14.25 -19.890625 15.625 -19.890625 Z M 15.625 -19.890625 "/></g></g></g><g fill="#e4e2dd" fill-opacity="1"><g transform="translate(186.808753, 33.89092)"><g><path d="M 2.25 0 L 2.25 -7.328125 L 10.0625 -7.328125 L 10.0625 0 Z M 2.25 0 "/></g></g></g></svg>