<svg width="122" height="37" viewBox="0 0 122 37" fill="none" xmlns="http://www.w3.org/2000/svg">
<path d="M0.72 27V10.92H6.192L9.888 17.016H10.224V10.92H15.792V27H10.296L6.648 20.448H6.288V27H0.72ZM22.2594 22.512C22.2754 23.072 22.6354 23.352 23.3394 23.352C24.9394 23.352 26.5394 23.304 28.1394 23.208L29.0754 23.136L29.1954 26.616C27.0674 27.08 24.9474 27.312 22.8354 27.312C20.7394 27.312 19.2194 26.832 18.2754 25.872C17.3474 24.896 16.8834 23.328 16.8834 21.168C16.8834 18.992 17.3874 17.352 18.3954 16.248C19.4034 15.128 20.9714 14.568 23.0994 14.568C25.2434 14.568 26.8354 15.024 27.8754 15.936C28.9154 16.848 29.4354 18.248 29.4354 20.136L29.1954 22.512H22.2594ZM24.0594 19.584C24.0594 19.12 23.9874 18.792 23.8434 18.6C23.7154 18.408 23.4834 18.312 23.1474 18.312C22.8114 18.312 22.5794 18.408 22.4514 18.6C22.3234 18.792 22.2514 19.12 22.2354 19.584H24.0594ZM35.2376 10.92L36.7016 15.336L38.5736 10.92H44.0456L40.5656 18.576L43.8296 27H38.1176L36.7016 22.728L35.2376 27H29.5736L33.0056 19.296L29.5736 10.92H35.2376ZM44.091 15.456V10.92H56.091V15.456H52.971V27H47.403V15.456H44.091ZM57.0403 27V10.92H65.3203L66.5683 17.064L67.6003 10.92H76.1203V27H70.5523V18.72H70.2883L68.8963 26.832H64.2403L62.8723 18.72H62.6083V27H57.0403ZM91.0596 17.544V26.52C88.1636 26.984 86.0196 27.216 84.6276 27.216C83.2356 27.216 82.0436 27.064 81.0516 26.76C80.0756 26.44 79.3076 25.92 78.7476 25.2C78.1876 24.48 77.7956 23.632 77.5716 22.656C77.3636 21.68 77.2596 20.44 77.2596 18.936C77.2596 15.848 77.8356 13.688 78.9876 12.456C80.1396 11.224 82.0836 10.608 84.8196 10.608C85.6356 10.608 86.5556 10.68 87.5796 10.824C88.6036 10.952 89.4196 11.08 90.0276 11.208L90.9396 11.424V15.624C88.6356 15.416 86.9956 15.312 86.0196 15.312C85.0596 15.312 84.4276 15.36 84.1236 15.456C83.8356 15.536 83.6036 15.64 83.4276 15.768C83.2516 15.88 83.1236 16.112 83.0436 16.464C82.9316 16.96 82.8756 17.832 82.8756 19.08C82.8756 20.328 83.0196 21.24 83.3076 21.816C83.5956 22.376 84.1796 22.656 85.0596 22.656L85.8756 22.632V21.432H85.1556L85.1316 17.544H91.0596ZM92.1669 15.456V10.92H104.887V15.456L99.6789 22.056V22.464H104.887V27H92.1669V22.68L97.4949 15.864V15.456H92.1669ZM106.095 27V10.92H111.567L115.263 17.016H115.599V10.92H121.167V27H115.671L112.023 20.448H111.663V27H106.095Z" fill="#F9F9F9"/>
</svg>
